<svg xmlns="http://www.w3.org/2000/svg" viewBox="0 0 92.48 92.48"><defs><style>.cls-1{fill:#41263b;}.cls-2{fill:#919191;}.cls-3{fill:#6e6e6e;}.cls-4{fill:#b8b8b8;}.cls-5{fill:#fff;}.cls-6{fill:#ff826d;}</style></defs><g id="Layer_2" data-name="Layer 2"><g id="Type"><path class="cls-1" d="M92.48,46.24A46.24,46.24,0,1,1,46.24,0,46.24,46.24,0,0,1,92.48,46.24Z"/><path class="cls-2" d="M18.59,39.21c.27,3.24,2.48,4.11,4.9,1.95L35.57,30.38c2.42-2.16,1.93-4.91-1.09-6.11L22.19,19.38c-3-1.2-5.26.47-5,3.7Z"/><path class="cls-3" d="M22,38c.19,2.19,1.68,2.78,3.31,1.32l8.16-7.29c1.64-1.46,1.31-3.32-.73-4.13l-8.31-3.3c-2-.81-3.55.32-3.37,2.5Z"/><path class="cls-2" d="M71.7,39.21c-.28,3.24-2.49,4.11-4.91,1.95L54.72,30.38c-2.42-2.16-1.93-4.91,1.08-6.11l12.3-4.89c3-1.2,5.26.47,5,3.7Z"/><path class="cls-3" d="M68.33,38c-.19,2.19-1.68,2.78-3.32,1.32l-8.16-7.29c-1.63-1.46-1.3-3.32.74-4.13l8.31-3.3c2-.81,3.55.32,3.36,2.5Z"/><path class="cls-4" d="M45.14,69.84c12.88,0,24-5.5,29.35-13.5-5.33-8-16.47-13.5-29.35-13.5s-24,5.51-29.35,13.5C21.12,64.34,32.26,69.84,45.14,69.84Z"/><path class="cls-4" d="M68.78,65.57v-20c0-11.58-10.47-21-23.4-21S22,34,22,45.54v20Z"/><circle class="cls-1" cx="37.38" cy="45.99" r="2.47"/><circle class="cls-1" cx="52.91" cy="45.99" r="2.47"/><path class="cls-3" d="M47,36.09V24.6c-.45,0-1.17-.07-1.8-.07s-1.35,0-1.8.07V36.09A1.8,1.8,0,1,0,47,36.09Z"/><path class="cls-3" d="M35.13,36.38c.6,2.35,4.25,1.35,3.64-1a15.06,15.06,0,0,1,1.07-10.29,25.05,25.05,0,0,0-4.55,1.4A18.78,18.78,0,0,0,35.13,36.38Z"/><path class="cls-3" d="M51.51,35.37c-.6,2.36,3,3.36,3.65,1a19,19,0,0,0-.16-9.9,25.55,25.55,0,0,0-4.55-1.4A15,15,0,0,1,51.51,35.37Z"/><path class="cls-4" d="M45.14,73.67c12.19,0,22.73-4,27.78-9.68-5-5.73-15.59-9.67-27.78-9.67S22.41,58.26,17.37,64C22.41,69.72,33,73.67,45.14,73.67Z"/><path class="cls-5" d="M56,60.73a5.74,5.74,0,0,1-5.74,5.74H40.1a5.74,5.74,0,0,1-5.74-5.74h0A5.74,5.74,0,0,1,40.1,55H50.22A5.74,5.74,0,0,1,56,60.73Z"/><ellipse class="cls-5" cx="45.14" cy="55.67" rx="7.54" ry="6.07"/><path class="cls-1" d="M49.22,60.56a4.16,4.16,0,1,1-8.32,0,1.12,1.12,0,0,0-2.23,0,6.39,6.39,0,0,0,12.78,0,1.12,1.12,0,0,0-2.23,0Z"/><path class="cls-6" d="M50.27,53.38c0,1.47-5.21,4.29-5.21,4.29s-5.2-2.82-5.2-4.29,2.33-1.83,5.2-1.83S50.27,51.91,50.27,53.38Z"/><path class="cls-2" d="M46.51,62.75A1.24,1.24,0,0,1,45.27,64h0A1.24,1.24,0,0,1,44,62.75V56.23A1.25,1.25,0,0,1,45.27,55h0a1.25,1.25,0,0,1,1.24,1.24Z"/></g></g></svg>