<svg xmlns="http://www.w3.org/2000/svg" viewBox="0 0 78.18 43.42"><defs><style>.cls-1{fill:#d6aa96;}.cls-2{fill:#c17f72;}.cls-3{fill:#b9e4f9;}.cls-4{fill:#8dc8e0;}.cls-5{fill:#3b3f51;}</style></defs><g id="Layer_2" data-name="Layer 2"><g id="Type"><path class="cls-1" d="M63.61,13.43a.19.19,0,0,1-.14-.16c-.1-.91-1-6.47-8.69-5.49A7.16,7.16,0,0,0,47.1,3.31a4.32,4.32,0,0,1-2.77-.69A9.67,9.67,0,0,0,39.09,1h0a9.7,9.7,0,0,0-5.24,1.67,4.29,4.29,0,0,1-2.77.69A7.17,7.17,0,0,0,23.4,7.78h0c-7.68-1-8.59,4.58-8.69,5.49a.18.18,0,0,1-.14.16c-5.67,1.46-4.49,7.33-4.49,7.33h58S69.29,14.89,63.61,13.43Z"/><path class="cls-2" d="M68.13,18.4h0v0c0-.09,0-.19,0-.29s0,0,0-.08a1.74,1.74,0,0,0,0-.22s0-.07,0-.11,0-.18-.07-.27,0-.09,0-.13,0-.12-.06-.19,0-.13-.07-.2l-.07-.18a1,1,0,0,1-.07-.15l-.09-.19-.12-.21a1,1,0,0,0-.08-.14,1.4,1.4,0,0,0-.1-.16l-.16-.23-.11-.15,0-.05h0a6,6,0,0,0-3.28-2,.19.19,0,0,1-.14-.15c-.09-.92-1-6.48-8.69-5.5A7.12,7.12,0,0,0,49.49,3.4a15.13,15.13,0,0,1,2.67,5.31,3.32,3.32,0,0,0,1.71,2.2l.06,0a2.37,2.37,0,0,1-1.09,4.47H11.29a7.09,7.09,0,0,0-1.21,5.34h58A7.84,7.84,0,0,0,68.13,18.4Z"/><path class="cls-3" d="M71,21.63a3.28,3.28,0,0,0-3.23-2.71H10.44a3.28,3.28,0,0,0-3.22,2.71L4.4,37.44H73.79Z"/><path class="cls-4" d="M45.7,31c-18.79-7.75-32.93-8.22-38.74-8L4.4,37.44H73.79L72.4,29.68C65.37,33.28,56.13,35.34,45.7,31Z"/><path class="cls-4" d="M75,37.44H3.22A2.27,2.27,0,0,0,1,39.71v2.76H77.23V39.71A2.27,2.27,0,0,0,75,37.44Z"/><path class="cls-5" d="M60.61,9.83a5.47,5.47,0,0,1,1.91,3.54,1.15,1.15,0,0,0,.85,1A5.11,5.11,0,0,1,66.16,16a1,1,0,0,0,.74.35,1,1,0,0,0,.6-.21,1,1,0,0,0,.14-1.34,6.8,6.8,0,0,0-3.3-2.17,7.18,7.18,0,0,0-2.55-4.32,8.85,8.85,0,0,0-6.4-1.57A8.17,8.17,0,0,0,47,2.36a3.37,3.37,0,0,1-2.16-.54,10,10,0,0,0-11.52,0,3.35,3.35,0,0,1-2.16.54,8.07,8.07,0,0,0-8.36,4.4,8.84,8.84,0,0,0-6.42,1.57,7.29,7.29,0,0,0-2.55,4.32,7,7,0,0,0-3.07,1.9,1,1,0,1,0,1.41,1.29,5.19,5.19,0,0,1,2.63-1.48,1.15,1.15,0,0,0,.85-1,5.47,5.47,0,0,1,1.91-3.55c1.33-1.05,3.25-1.42,5.71-1.1a1,1,0,0,0,1-.64A6.21,6.21,0,0,1,31,4.26a5.32,5.32,0,0,0,3.39-.84,8.73,8.73,0,0,1,4.71-1.51,8.73,8.73,0,0,1,4.72,1.51,5.29,5.29,0,0,0,3.38.84,6.21,6.21,0,0,1,6.69,3.83,1,1,0,0,0,1,.64C57.37,8.41,59.29,8.78,60.61,9.83Z"/><path class="cls-5" d="M22.54,13.56a1,1,0,0,0,.22,1.33.94.94,0,0,0,.55.17,1,1,0,0,0,.78-.4,5.26,5.26,0,0,1,4.05-2.21,1,1,0,0,0-.12-1.9A7,7,0,0,0,22.54,13.56Z"/><path class="cls-5" d="M50.16,10.55a1,1,0,1,0-.12,1.9,5.24,5.24,0,0,1,4.05,2.21,1,1,0,0,0,.78.4.94.94,0,0,0,.55-.17,1,1,0,0,0,.23-1.33A7.07,7.07,0,0,0,50.16,10.55Z"/><path class="cls-5" d="M21.32,36.65a.65.65,0,0,0-.16-.09L21,36.51a.92.92,0,0,0-.86.26,1,1,0,0,0-.29.67,1.23,1.23,0,0,0,0,.19,1.27,1.27,0,0,0,.06.18A.65.65,0,0,0,20,38a.79.79,0,0,0,.12.15l.14.12.16.08.18.06.19,0,.19,0a.49.49,0,0,0,.17-.06l.17-.08.14-.12a.79.79,0,0,0,.12-.15.65.65,0,0,0,.09-.16.64.64,0,0,0,.06-.18,1.21,1.21,0,0,0,0-.19,1,1,0,0,0-.28-.67A.53.53,0,0,0,21.32,36.65Z"/><path class="cls-5" d="M75,36.49h-.37l-2.68-15A4.24,4.24,0,0,0,67.74,18H10.44a4.23,4.23,0,0,0-4.16,3.49l-2.68,15H3.22A3.22,3.22,0,0,0,0,39.71v2.76a1,1,0,0,0,1,1H77.23a1,1,0,0,0,1-1V39.71A3.22,3.22,0,0,0,75,36.49Zm1.31,5H1.91v-1.8A1.31,1.31,0,0,1,3.22,38.4h12.5a1,1,0,1,0,0-1.91H5.54l2.62-14.7a2.31,2.31,0,0,1,2.28-1.91h57.3A2.32,2.32,0,0,1,70,21.79l2.62,14.7H25.94a1,1,0,1,0,0,1.91H75a1.31,1.31,0,0,1,1.31,1.31Z"/><path class="cls-5" d="M57.53,34.42a32.17,32.17,0,0,0,11.39-2.15,1,1,0,0,0-.68-1.78,29.34,29.34,0,0,1-22.17-.33c-15.36-6.34-27.65-7.89-35.27-8.08a1,1,0,0,0,0,1.91c7.45.18,19.49,1.71,34.58,7.93A31.58,31.58,0,0,0,57.53,34.42Z"/></g></g></svg>