<svg xmlns="http://www.w3.org/2000/svg" viewBox="0 0 55.9 50.44"><defs><style>.cls-1{fill:#fff;}.cls-2{fill:#2d2d2d;}.cls-3{fill:#64b5f6;}</style></defs><g id="Layer_2" data-name="Layer 2"><g id="Type"><path class="cls-1" d="M22.58,9.85a1.17,1.17,0,0,0,.19-.63V5H33.13V9.22a1.18,1.18,0,0,0,.2.63h3.28a1.17,1.17,0,0,0,.19-.63V3.53A1.67,1.67,0,0,0,35,2.09h-14A1.67,1.67,0,0,0,19.1,3.53V9.22a1.18,1.18,0,0,0,.2.63Z"/><path class="cls-2" d="M36.61,11H33.33a1.11,1.11,0,0,1-.94-.52A2.24,2.24,0,0,1,32,9.22V6.07H23.87V9.22a2.24,2.24,0,0,1-.36,1.21,1.1,1.1,0,0,1-.93.52H19.3a1.12,1.12,0,0,1-.94-.52A2.24,2.24,0,0,1,18,9.22V3.53A2.77,2.77,0,0,1,20.94,1H35A2.76,2.76,0,0,1,37.9,3.53V9.22a2.24,2.24,0,0,1-.36,1.21A1.08,1.08,0,0,1,36.61,11Zm-2.38-2.2h1.45l0-5.22c0-.09-.26-.34-.73-.34h-14c-.48,0-.74.25-.74.34V8.75h1.47V5a1.1,1.1,0,0,1,1.1-1.1H33.13A1.1,1.1,0,0,1,34.23,5Z"/><rect class="cls-3" x="22.77" y="1.1" width="10.36" height="4.87" rx="1.02"/><path class="cls-2" d="M32.11,7.07H23.79A2.12,2.12,0,0,1,21.67,5V2.12A2.12,2.12,0,0,1,23.79,0h8.32a2.12,2.12,0,0,1,2.12,2.12V5A2.12,2.12,0,0,1,32.11,7.07Zm-8.24-2.2H32V2.2H23.87Z"/><rect class="cls-3" x="1.1" y="9.85" width="53.7" height="39.49"/><path class="cls-2" d="M54.8,50.44H1.1A1.1,1.1,0,0,1,0,49.34V9.85a1.1,1.1,0,0,1,1.1-1.1H54.8a1.1,1.1,0,0,1,1.1,1.1V49.34A1.1,1.1,0,0,1,54.8,50.44ZM2.2,48.24H53.7V11H2.2Z"/><polygon class="cls-1" points="36.66 27.36 30.98 27.36 30.98 21.68 24.93 21.68 24.93 27.36 19.24 27.36 19.24 33.41 24.93 33.41 24.93 39.1 30.98 39.1 30.98 33.41 36.66 33.41 36.66 27.36"/><path class="cls-2" d="M31,40.2H24.92a1.1,1.1,0,0,1-1.1-1.1V34.52H19.24a1.11,1.11,0,0,1-1.1-1.11v-6a1.1,1.1,0,0,1,1.1-1.1h4.58V21.68a1.1,1.1,0,0,1,1.1-1.1H31a1.1,1.1,0,0,1,1.1,1.1v4.58h4.58a1.1,1.1,0,0,1,1.1,1.1v6a1.11,1.11,0,0,1-1.1,1.11H32.08V39.1A1.1,1.1,0,0,1,31,40.2ZM26,38h3.85V33.41a1.1,1.1,0,0,1,1.1-1.1h4.58V28.46H31a1.1,1.1,0,0,1-1.1-1.1V22.78H26v4.58a1.11,1.11,0,0,1-1.11,1.1H20.34v3.85h4.58A1.11,1.11,0,0,1,26,33.41Z"/></g></g></svg>