<svg xmlns="http://www.w3.org/2000/svg" viewBox="0 0 58.7 54.67"><defs><style>.cls-1{fill:#919191;}.cls-2{fill:#6e6e6e;}.cls-3{fill:#b8b8b8;}.cls-4{fill:#41263b;}.cls-5{fill:#fff;}.cls-6{fill:#ff826d;}</style></defs><g id="Layer_2" data-name="Layer 2"><g id="Type"><path class="cls-1" d="M2.79,20.22c.28,3.23,2.49,4.11,4.91,2L19.77,11.39c2.43-2.17,1.94-4.92-1.08-6.12L6.39.39c-3-1.2-5.25.47-5,3.7Z"/><path class="cls-2" d="M6.17,19c.18,2.18,1.68,2.78,3.31,1.31l8.16-7.28c1.64-1.46,1.31-3.32-.73-4.13L8.6,5.63c-2-.81-3.55.31-3.37,2.5Z"/><path class="cls-1" d="M55.91,20.22c-.28,3.23-2.49,4.11-4.91,2L38.93,11.39C36.51,9.22,37,6.47,40,5.27L52.31.39c3-1.2,5.26.47,5,3.7Z"/><path class="cls-2" d="M52.54,19c-.19,2.18-1.68,2.78-3.32,1.31l-8.16-7.28c-1.63-1.46-1.3-3.32.74-4.13l8.3-3.3c2-.81,3.56.31,3.37,2.5Z"/><path class="cls-3" d="M29.35,50.85c12.88,0,24-5.51,29.35-13.5-5.33-8-16.47-13.5-29.35-13.5S5.33,29.35,0,37.35C5.33,45.34,16.47,50.85,29.35,50.85Z"/><path class="cls-3" d="M53,46.57v-20c0-11.59-10.47-21-23.4-21S6.19,15,6.19,26.55v20Z"/><circle class="cls-4" cx="21.59" cy="27" r="2.47"/><circle class="cls-4" cx="37.11" cy="27" r="2.47"/><path class="cls-2" d="M31.17,17.1V5.61c-.45,0-1.17-.07-1.8-.07s-1.35,0-1.8.07V17.1A1.8,1.8,0,1,0,31.17,17.1Z"/><path class="cls-2" d="M19.34,17.38c.6,2.36,4.25,1.36,3.64-1a15,15,0,0,1,1.07-10.3A25.07,25.07,0,0,0,19.5,7.49,18.75,18.75,0,0,0,19.34,17.38Z"/><path class="cls-2" d="M35.72,16.38c-.61,2.36,3,3.36,3.65,1a19,19,0,0,0-.16-9.89,25.57,25.57,0,0,0-4.55-1.41A15.09,15.09,0,0,1,35.72,16.38Z"/><path class="cls-3" d="M29.35,54.67c12.19,0,22.73-3.94,27.78-9.67-5.05-5.73-15.59-9.68-27.78-9.68S6.62,39.27,1.57,45C6.62,50.73,17.16,54.67,29.35,54.67Z"/><path class="cls-5" d="M40.17,41.74a5.74,5.74,0,0,1-5.74,5.73H24.31a5.74,5.74,0,0,1-5.74-5.73h0A5.74,5.74,0,0,1,24.31,36H34.43a5.74,5.74,0,0,1,5.74,5.74Z"/><ellipse class="cls-5" cx="29.35" cy="36.67" rx="7.54" ry="6.07"/><path class="cls-4" d="M33.43,41.57a4.16,4.16,0,0,1-8.32,0,1.12,1.12,0,0,0-2.23,0,6.39,6.39,0,0,0,12.78,0,1.12,1.12,0,0,0-2.23,0Z"/><path class="cls-6" d="M34.47,34.39c0,1.47-5.2,4.29-5.2,4.29s-5.21-2.82-5.21-4.29,2.33-1.83,5.21-1.83S34.47,32.92,34.47,34.39Z"/><path class="cls-1" d="M30.72,43.76A1.25,1.25,0,0,1,29.48,45h0a1.25,1.25,0,0,1-1.24-1.24V37.24A1.24,1.24,0,0,1,29.48,36h0a1.24,1.24,0,0,1,1.24,1.24Z"/></g></g></svg>