<svg xmlns="http://www.w3.org/2000/svg" viewBox="0 0 92.48 92.48"><defs><style>.cls-1{fill:#ffd664;}.cls-2{fill:#41263b;}.cls-3{fill:#b2744f;}.cls-4{fill:#fff;}</style></defs><g id="Layer_2" data-name="Layer 2"><g id="Type"><path class="cls-1" d="M92.48,46.24A46.24,46.24,0,1,1,46.24,0,46.24,46.24,0,0,1,92.48,46.24Z"/><path class="cls-2" d="M35.69,21.3l-29,22c-4.11,5.29-4.09,12.32,0,15.71l.54.45c4.14,3.39,10.84,1.85,15-3.45L36.72,22.14Z"/><path class="cls-2" d="M56.42,21.3l29,22c4.12,5.29,4.1,12.32,0,15.71l-.54.45c-4.14,3.39-10.84,1.85-15-3.45L55.39,22.14Z"/><path class="cls-3" d="M41,18c-4.18,0-8.72,3.51-10.1,7.85L23.33,49.67c-1.37,4.34.93,7.94,5.1,7.94H63.67c4.18,0,6.48-3.62,5.11-8L61.25,25.83C59.87,21.49,55.33,18,51.15,18Z"/><path class="cls-3" d="M69.83,55.7c0,9.9-10.65,17.93-23.78,17.93s-23.77-8-23.77-17.93S32.92,37.77,46.05,37.77,69.83,45.79,69.83,55.7Z"/><path class="cls-2" d="M39.81,40.42a2.92,2.92,0,1,1-2.92-2.92A2.92,2.92,0,0,1,39.81,40.42Z"/><path class="cls-2" d="M58.14,40.42a2.92,2.92,0,1,1-2.92-2.92A2.92,2.92,0,0,1,58.14,40.42Z"/><path class="cls-4" d="M60,60.91a7.37,7.37,0,0,1-7.37,7.38H39.45a7.37,7.37,0,0,1-7.37-7.38h0a7.37,7.37,0,0,1,7.37-7.37H52.67A7.37,7.37,0,0,1,60,60.91Z"/><path class="cls-4" d="M55.77,54.34c0,4.32-4.35,7.83-9.72,7.83s-9.71-3.51-9.71-7.83,4.35-7.84,9.71-7.84S55.77,50,55.77,54.34Z"/><path class="cls-2" d="M54.49,48.37c0,2.38-8.44,7-8.44,7s-8.43-4.58-8.43-7,3.77-3,8.43-3S54.49,46,54.49,48.37Z"/><rect class="cls-2" x="44.54" y="51.76" width="3.31" height="11.69" rx="1.6"/><path class="cls-2" d="M51.42,61.1a5.37,5.37,0,0,1-10.73,0c0-1.75-2.92-1.75-2.87,0a8.25,8.25,0,0,0,16.47,0c.05-1.75-2.83-1.75-2.87,0Z"/></g></g></svg>