<svg xmlns="http://www.w3.org/2000/svg" viewBox="0 0 84.93 55.68"><defs><style>.cls-1{fill:#41263b;}.cls-2{fill:#b2744f;}.cls-3{fill:#fff;}</style></defs><g id="Layer_2" data-name="Layer 2"><g id="Type"><path class="cls-1" d="M32.1,3.35l-29,22C-1,30.68-1,37.71,3.12,41.1l.54.45c4.14,3.39,10.84,1.85,15-3.44L33.13,4.19Z"/><path class="cls-1" d="M52.83,3.35l29,22C86,30.68,86,37.71,81.81,41.1l-.54.45c-4.14,3.39-10.84,1.85-15-3.44L51.8,4.19Z"/><path class="cls-2" d="M37.37,0c-4.18,0-8.72,3.51-10.1,7.85L19.74,31.72c-1.37,4.34.93,7.94,5.11,7.94H60.09c4.17,0,6.47-3.62,5.1-8L57.66,7.89C56.29,3.54,51.74,0,47.56,0Z"/><path class="cls-2" d="M66.24,37.75c0,9.9-10.64,17.93-23.77,17.93s-23.78-8-23.78-17.93S29.34,19.82,42.47,19.82,66.24,27.84,66.24,37.75Z"/><path class="cls-1" d="M36.22,22.47a2.92,2.92,0,1,1-2.92-2.92A2.91,2.91,0,0,1,36.22,22.47Z"/><path class="cls-1" d="M54.55,22.47a2.92,2.92,0,1,1-2.92-2.92A2.92,2.92,0,0,1,54.55,22.47Z"/><path class="cls-3" d="M56.46,43a7.38,7.38,0,0,1-7.38,7.37H35.86A7.37,7.37,0,0,1,28.49,43h0a7.37,7.37,0,0,1,7.37-7.38H49.08A7.38,7.38,0,0,1,56.46,43Z"/><path class="cls-3" d="M52.18,36.39c0,4.32-4.35,7.83-9.71,7.83s-9.72-3.51-9.72-7.83,4.35-7.84,9.72-7.84S52.18,32.06,52.18,36.39Z"/><path class="cls-1" d="M50.9,30.43c0,2.37-8.43,7-8.43,7S34,32.8,34,30.43s3.78-3,8.44-3S50.9,28.05,50.9,30.43Z"/><rect class="cls-1" x="40.95" y="33.81" width="3.31" height="11.69" rx="1.6"/><path class="cls-1" d="M47.83,43.15a5.37,5.37,0,0,1-10.73,0c0-1.75-2.91-1.75-2.87,0a8.25,8.25,0,0,0,16.47,0c0-1.75-2.83-1.75-2.87,0Z"/></g></g></svg>