<svg xmlns="http://www.w3.org/2000/svg" viewBox="0 0 55.9 55.9"><defs><style>.cls-1{fill:#ff6d6d;}.cls-2{fill:#2d2d2d;}.cls-3{fill:#ffe0b2;}.cls-4{fill:#64b5f6;}.cls-5{fill:#2196f3;}</style></defs><g id="Layer_2" data-name="Layer 2"><g id="Type"><path class="cls-1" d="M38.13,32.11l7.81-10.35c1.23-1.64,1.31-3.64.18-4.69l-2-1.84,10.23-11A1.6,1.6,0,0,0,54.29,2l-.47-.43a1.6,1.6,0,0,0-2.26.08l-10.23,11-2-1.85c-1.13-1-3.12-.82-4.66.53l-9.76,8.54c-.9.79-1.12,2-.46,2.65L30,27.63l5.53,5.13A1.87,1.87,0,0,0,38.13,32.11Z"/><path class="cls-2" d="M36.38,34.18a2.32,2.32,0,0,1-1.61-.61L23.72,23.3A2.38,2.38,0,0,1,23,21.5,3.5,3.5,0,0,1,24.2,19L34,10.47c2-1.74,4.57-2,6.13-.5l1.18,1.09L50.76.86A2.69,2.69,0,0,1,54.57.72l.47.44A2.7,2.7,0,0,1,55.18,5l-9.49,10.2,1.18,1.1c1.56,1.45,1.54,4-.06,6.15L39,32.78h0a3.45,3.45,0,0,1-2.38,1.39Zm1.75-2.07Zm-.57-20.89a3.37,3.37,0,0,0-2.15.91l-9.76,8.54a1.22,1.22,0,0,0-.46.86.27.27,0,0,0,0,.15L36.27,32s.06,0,.15,0a1.28,1.28,0,0,0,.83-.53L45.06,21.1c.87-1.16,1-2.57.31-3.22l-2-1.84a1.11,1.11,0,0,1-.06-1.56l10.24-11a.51.51,0,0,0,.13-.35.49.49,0,0,0-.16-.35l-.47-.44a.51.51,0,0,0-.35-.13.49.49,0,0,0-.35.16l-10.24,11a1.09,1.09,0,0,1-1.55.05l-2-1.84A1.53,1.53,0,0,0,37.56,11.22Z"/><path class="cls-3" d="M7.16,30.67a7.64,7.64,0,0,1,7.1-6.24c6.23-.51,10.4-9.5,16.14-8.52,4.64.79,4.77,6.68,9.05,7.34,6.18,1,9.53,3.48,9.53,7.42"/><rect class="cls-4" x="1.1" y="30.67" width="53.7" height="8.29" rx="4.14"/><path class="cls-2" d="M50.66,40.06H5.24a5.25,5.25,0,0,1,0-10.49H50.66a5.25,5.25,0,0,1,0,10.49ZM5.24,31.77a3,3,0,0,0,0,6.09H50.66a3,3,0,0,0,0-6.09Z"/><polygon class="cls-5" points="27.95 38.96 5.24 38.96 7.5 54.8 13.77 54.8 15.29 51.43 27.95 51.43 40.61 51.43 42.13 54.8 48.4 54.8 50.66 38.96 27.95 38.96"/><path class="cls-2" d="M48.4,55.9H42.14a1.1,1.1,0,0,1-1-.64L39.9,52.53H16l-1.24,2.73a1.1,1.1,0,0,1-1,.64H7.5A1.1,1.1,0,0,1,6.41,55L4.15,39.11a1.14,1.14,0,0,1,.26-.88,1.11,1.11,0,0,1,.83-.37H50.66a1.09,1.09,0,0,1,.83.37,1.14,1.14,0,0,1,.26.88L49.49,55A1.1,1.1,0,0,1,48.4,55.9Zm-5.55-2.2h4.6l1.94-13.64H6.51l2,13.64h4.6L14.29,51a1.1,1.1,0,0,1,1-.64H40.61a1.1,1.1,0,0,1,1,.64Z"/><path class="cls-2" d="M49,31.77a1.1,1.1,0,0,1-1.1-1.1c0-3.32-2.89-5.45-8.6-6.33-2.57-.39-3.9-2.31-5.07-4s-2.09-3-4-3.35c-2.5-.42-4.85,1.62-7.35,3.78s-5.19,4.48-8.51,4.76a6.52,6.52,0,0,0-6.1,5.31,1.1,1.1,0,0,1-2.17-.33,8.71,8.71,0,0,1,8.09-7.18c2.6-.21,5-2.25,7.25-4.23,2.77-2.4,5.64-4.88,9.16-4.28,2.82.48,4.21,2.5,5.44,4.27,1,1.52,2,2.82,3.59,3.08,8.66,1.33,10.47,5.36,10.47,8.5A1.1,1.1,0,0,1,49,31.77Z"/><circle class="cls-2" cx="24.09" cy="22.61" r="1.19"/><circle class="cls-2" cx="28.72" cy="25.82" r="1.19"/><circle class="cls-2" cx="20.51" cy="26.28" r="1.19"/></g></g></svg>