<svg xmlns="http://www.w3.org/2000/svg" viewBox="0 0 198.24 168.08"><defs><style>.cls-1{fill:none;}.cls-2{fill:#576a78;}</style></defs><g id="Layer_2" data-name="Layer 2"><g id="Type"><path class="cls-1" d="M188.61,164.51a7.34,7.34,0,0,1,1.35-5.93,23.17,23.17,0,0,1,6.17-6,18.16,18.16,0,0,1,2.11-1.27v-3.74a7.52,7.52,0,0,1-11-4.34,9.56,9.56,0,0,1,1-6.69c.46-1,1-1.91,1.54-2.86a24.84,24.84,0,0,1,5.67-6.37,14.44,14.44,0,0,1,2.85-1.66V78c-.55.13-1.1.22-1.65.3l-2,.29A6.62,6.62,0,0,0,191.41,80c-.84.67-1.63,1.37-2.5,2A10.67,10.67,0,0,1,183,84.27a4.68,4.68,0,0,1-2.4-.52,3.82,3.82,0,0,1-1.47-5.39,16.5,16.5,0,0,1,1.12-1.87A11.28,11.28,0,0,0,182,73a9.6,9.6,0,0,1,1.74-3.26A10,10,0,0,1,192.37,66a10.15,10.15,0,0,1,3.79,1,7.77,7.77,0,0,0,2.08.65V61.18a5.51,5.51,0,0,1-3.14-2.64c-.28-.43-.5-.91-.65-1.19-1-2.35-1.31-4.5-.51-6.56a3.52,3.52,0,0,1,4.3-2.4V.91A7.07,7.07,0,0,1,190.82,0h-5.25c.23.52.46,1.05.68,1.58A4.12,4.12,0,0,1,185.57,6a9.37,9.37,0,0,1-10,3.52c-.48-.14-.94-.31-1.41-.47l-1.61-1c-1.28-1.5-2.54-3-3.82-4.51A13.93,13.93,0,0,0,164.19,0H78.84c.9.94,1.14,2.31.65,4.11a16.57,16.57,0,0,1-4.06,6.73,21.17,21.17,0,0,1-5.54,4.59,7,7,0,0,1-6.16.54A6.83,6.83,0,0,1,60.66,5.8a14.35,14.35,0,0,1,7-5.8H1.65A10.83,10.83,0,0,1,.25.81L0,.91V48.39a4.89,4.89,0,0,1,1.6.71,8.78,8.78,0,0,1,3.2,9.43A3.82,3.82,0,0,1,1,61.31a3.66,3.66,0,0,1-1-.13v6.55l.94.17a21,21,0,0,1,2.71.52A3.53,3.53,0,0,1,6.5,71.7a4.5,4.5,0,0,1-.24,2,6.82,6.82,0,0,1-3.54,3.36l-.55.25A10.54,10.54,0,0,1,0,78v47.65q.41-.18.81-.33a3.78,3.78,0,0,1,5,2.23,14.35,14.35,0,0,1,1,7.47c-.41,4.65-2,8.73-5.72,11.79a9.14,9.14,0,0,1-1.07.76v3.74A12.83,12.83,0,0,1,4.16,150a3.72,3.72,0,0,1,4.37,3.34c.52,4.83-2,11.52-6.88,14.72H67.71a19.79,19.79,0,0,1,1.92-.68,14,14,0,0,1,6.4-.62,5,5,0,0,1,2.81,1.3h85.35a15.26,15.26,0,0,0-2.37-.9c-1.87-.52-3.75-1-5.63-1.48l-1.61-1a9.36,9.36,0,0,1-2.92-4.42,10.09,10.09,0,0,1,1.12-7.86,3.4,3.4,0,0,1,2.61-1.74c1.18-.13,2.37-.18,3.56-.22a19.92,19.92,0,0,0,7.7-2,29.91,29.91,0,0,1,6.1-2.15c5.06-1.08,9.08,1.5,10.23,6.55a28.12,28.12,0,0,1,.62,6.28,20.33,20.33,0,0,0,1.77,8.47l.2.45h5.25A6.72,6.72,0,0,1,188.61,164.51ZM82.94,6.25C86.2,3,90.23,1.79,94.68,1.67a14.91,14.91,0,0,1,7.12,1.27,4,4,0,0,1,2.11,5.67,15.7,15.7,0,0,1-5.49,6.22c-.93.7-1.93,1.3-2.69,1.8a20.25,20.25,0,0,1-6.08,2.49c-3.79.71-6.62-.62-8.34-3.92C79.68,12.1,80.28,8.86,82.94,6.25ZM93,39.39a14.09,14.09,0,0,1,6.74.76,3.71,3.71,0,0,1,2.21,5c-2,4.89-8.41,10-14.76,9.58a6.86,6.86,0,0,1-6.53-8.62,7.39,7.39,0,0,1,4-4.53A23.22,23.22,0,0,1,93,39.39ZM61.94,50.17,61,48.5c-.39-1.93-.76-3.87-1.16-5.8a13.92,13.92,0,0,0-3.94-7.18c-1.38-1.36-2.8-2.68-4.2-4-.31-.56-.61-1.12-.92-1.67a9.34,9.34,0,0,1-.41-5.28,10,10,0,0,1,4.78-6.33A3.38,3.38,0,0,1,58.31,18c1.09.46,2.16,1,3.22,1.53a20.07,20.07,0,0,0,7.69,2,30.48,30.48,0,0,1,6.38,1.06c5,1.51,7.21,5.71,5.78,10.69a28.86,28.86,0,0,1-2.5,5.8,20.21,20.21,0,0,0-2.55,8.26c-.06.74-.13,1.48-.22,2.21A4.13,4.13,0,0,1,73.4,53,9.38,9.38,0,0,1,63,51.26C62.6,50.91,62.28,50.54,61.94,50.17Zm2.83,64.49c-1.24-1.6-1.81-3.29-1-5s2.53-2.18,4.54-2.15A9.46,9.46,0,0,1,73,108.91a9.55,9.55,0,0,1,3.34,2.59c2.41,3,.86,6.61-3,7a9.36,9.36,0,0,1-5.39-1.26A9.56,9.56,0,0,1,64.77,114.66Zm13.81,16a8,8,0,0,1-4.72-.37,3.45,3.45,0,0,0-.46-.12L72,129.45a15.51,15.51,0,0,1-2.13-2.07c-2.41-3.39-.51-6.75,3.7-6.63A10,10,0,0,1,80,123.41C82.92,125.94,81.86,129.9,78.58,130.68Zm-.79-22.15A10.47,10.47,0,0,1,74,107.32a10,10,0,0,1-4.34-4c-1.63-2.94-.27-5.69,3-6.1,4-.49,8.82,2.6,9.84,6.27C83.35,106.43,81,108.88,77.79,108.53Zm5.34-9.24c-.82-2.63.73-4.77,3.58-5a8.78,8.78,0,0,1,8.36,5.41,3.82,3.82,0,0,1-1.25,4.54c-1.41,1.14-3.13,1-5,.4-.49-.17-.95-.41-1.25-.54C85.36,102.89,83.79,101.4,83.13,99.29ZM105,115.57c-.08.18-.19.35-.28.53a13.61,13.61,0,0,1-2.37,3.16c-.47.49-.94,1-1.41,1.47a6.72,6.72,0,0,0-1.6,3.08c-.24,1-.43,2.08-.71,3.11a10.63,10.63,0,0,1-3.3,5.44,4.43,4.43,0,0,1-2.2,1.07,3.82,3.82,0,0,1-4.5-3.31,15,15,0,0,1-.27-2.16,11.58,11.58,0,0,0-.74-3.81,9.52,9.52,0,0,1-.66-3.64A10.09,10.09,0,0,1,95,110.69a10.07,10.07,0,0,0,2.87-1.23,19.71,19.71,0,0,1,2.45-1.27,3.52,3.52,0,0,1,4.27.8,4.31,4.31,0,0,1,1.07,1.75A6.8,6.8,0,0,1,105,115.57Zm4.35-87.24c-2.61,3.88-6,6.65-10.72,7.55a7.51,7.51,0,0,1-8.84-9,9.63,9.63,0,0,1,4.07-5.39c.88-.63,1.83-1.17,2.74-1.75a24.79,24.79,0,0,1,8-2.83,14.15,14.15,0,0,1,4.16,0,3.79,3.79,0,0,1,3.32,4.39A14.26,14.26,0,0,1,109.3,28.33Zm71.56,17.26c.54-3.32,3.31-4.63,6.17-2.9,3.41,2.07,5.3,7.51,3.83,11-1.18,2.8-4.52,3.29-6.84,1a10.27,10.27,0,0,1-2.24-3.31A9.93,9.93,0,0,1,180.86,45.59ZM172.32,47c1.68-.77,3.33-.14,4.89,1.12A9.47,9.47,0,0,1,180,52a9.47,9.47,0,0,1,1,4.11c0,3.88-3.42,5.72-6.68,3.57a9.38,9.38,0,0,1-3.45-4.33,9.69,9.69,0,0,1-.89-3.93C170,49.43,170.62,47.76,172.32,47Zm-5.39,89.16a21.25,21.25,0,0,1-2.63,6.7,7,7,0,0,1-5.13,3.45,6.81,6.81,0,0,1-7.6-7.41,15.06,15.06,0,0,1,4.7-10,14,14,0,0,1,5.3-3.63c3-1,4.91,0,5.66,3.06A16.68,16.68,0,0,1,166.93,136.15Zm.5-66.77a2.72,2.72,0,0,0-.29-.38l-.63-1.44a16,16,0,0,1-.39-3c.22-4.15,3.8-5.6,7-2.91a10,10,0,0,1,3.4,6.08c.7,3.79-2.59,6.23-5.64,4.82A8,8,0,0,1,167.43,69.38Zm15.95,67.13c-3,2.45-6.1,2.66-9.2.61-2.92-1.93-4-5.05-2.9-8.63,1.3-4.38,4.22-7.43,8.05-9.68a14.84,14.84,0,0,1,6.84-2.34,4,4,0,0,1,4.6,3.94,15.78,15.78,0,0,1-1.79,8.11c-.48,1-1.07,2.06-1.49,2.87A20.32,20.32,0,0,1,183.38,136.51Z"/><path class="cls-2" d="M183.6,159.16a28.12,28.12,0,0,0-.62-6.28c-1.15-5-5.17-7.63-10.23-6.55a29.91,29.91,0,0,0-6.1,2.15,19.92,19.92,0,0,1-7.7,2c-1.19,0-2.38.09-3.56.22a3.4,3.4,0,0,0-2.61,1.74,10.09,10.09,0,0,0-1.12,7.86,9.36,9.36,0,0,0,2.92,4.42l1.61,1c1.88.49,3.76,1,5.63,1.48a15.26,15.26,0,0,1,2.37.9h21.38l-.2-.45A20.33,20.33,0,0,1,183.6,159.16Z"/><path class="cls-2" d="M189,128.52a15.78,15.78,0,0,0,1.79-8.11,4,4,0,0,0-4.6-3.94,14.84,14.84,0,0,0-6.84,2.34c-3.83,2.25-6.75,5.3-8.05,9.68-1.07,3.58,0,6.7,2.9,8.63,3.1,2,6.23,1.84,9.2-.61a20.32,20.32,0,0,0,4.11-5.12C187.91,130.58,188.5,129.57,189,128.52Z"/><path class="cls-2" d="M189.72,133.72c-.52.95-1.08,1.88-1.54,2.86a9.56,9.56,0,0,0-1,6.69,7.52,7.52,0,0,0,11,4.34V125.69a14.44,14.44,0,0,0-2.85,1.66A24.84,24.84,0,0,0,189.72,133.72Z"/><path class="cls-2" d="M161.57,125.24a14,14,0,0,0-5.3,3.63,15.06,15.06,0,0,0-4.7,10,6.81,6.81,0,0,0,7.6,7.41,7,7,0,0,0,5.13-3.45,21.25,21.25,0,0,0,2.63-6.7,16.68,16.68,0,0,0,.3-7.85C166.48,125.24,164.53,124.19,161.57,125.24Z"/><path class="cls-2" d="M190,158.58a7.34,7.34,0,0,0-1.35,5.93,6.72,6.72,0,0,0,2.21,3.57h7.42V151.35a18.16,18.16,0,0,0-2.11,1.27A23.17,23.17,0,0,0,190,158.58Z"/><path class="cls-2" d="M76,166.78a14,14,0,0,0-6.4.62,19.79,19.79,0,0,0-1.92.68H78.84A5,5,0,0,0,76,166.78Z"/><path class="cls-2" d="M6.79,135.06a14.35,14.35,0,0,0-1-7.47,3.78,3.78,0,0,0-5-2.23q-.4.15-.81.33v21.92a9.14,9.14,0,0,0,1.07-.76C4.74,143.79,6.38,139.71,6.79,135.06Z"/><path class="cls-2" d="M8.53,153.36A3.72,3.72,0,0,0,4.16,150,12.83,12.83,0,0,0,0,151.35v16.73H1.65C6.49,164.88,9.05,158.19,8.53,153.36Z"/><path class="cls-2" d="M176.54,67.78a10,10,0,0,0-3.4-6.08c-3.22-2.69-6.8-1.24-7,2.91a16,16,0,0,0,.39,3l.63,1.44a2.72,2.72,0,0,1,.29.38,8,8,0,0,0,3.47,3.22C174,74,177.24,71.57,176.54,67.78Z"/><path class="cls-2" d="M192.37,66a10,10,0,0,0-8.63,3.75A9.6,9.6,0,0,0,182,73a11.28,11.28,0,0,1-1.79,3.45,16.5,16.5,0,0,0-1.12,1.87,3.82,3.82,0,0,0,1.47,5.39,4.68,4.68,0,0,0,2.4.52,10.67,10.67,0,0,0,5.95-2.22c.87-.64,1.66-1.34,2.5-2a6.62,6.62,0,0,1,3.16-1.41l2-.29c.55-.08,1.1-.17,1.65-.3V67.73a7.77,7.77,0,0,1-2.08-.65A10.15,10.15,0,0,0,192.37,66Z"/><path class="cls-2" d="M184,54.73c2.32,2.28,5.66,1.79,6.84-1,1.47-3.52-.42-9-3.83-11-2.86-1.73-5.63-.42-6.17,2.9a9.93,9.93,0,0,0,.92,5.83A10.27,10.27,0,0,0,184,54.73Z"/><path class="cls-2" d="M174.34,59.72c3.26,2.15,6.67.31,6.68-3.57A9.47,9.47,0,0,0,180,52a9.47,9.47,0,0,0-2.8-3.93c-1.56-1.26-3.21-1.89-4.89-1.12S170,49.43,170,51.46a9.69,9.69,0,0,0,.89,3.93A9.38,9.38,0,0,0,174.34,59.72Z"/><path class="cls-2" d="M193.94,50.79c-.8,2.06-.48,4.21.51,6.56.15.28.37.76.65,1.19a5.51,5.51,0,0,0,3.14,2.64V48.39A3.52,3.52,0,0,0,193.94,50.79Z"/><path class="cls-2" d="M168.74,3.48c1.28,1.5,2.54,3,3.82,4.51l1.61,1c.47.16.93.33,1.41.47a9.37,9.37,0,0,0,10-3.52,4.12,4.12,0,0,0,.68-4.38C186,1.05,185.8.52,185.57,0H164.19A13.93,13.93,0,0,1,168.74,3.48Z"/><path class="cls-2" d="M198.24.91V0h-7.42A7.07,7.07,0,0,0,198.24.91Z"/><path class="cls-2" d="M73.4,53a4.13,4.13,0,0,0,2.71-3.5c.09-.73.16-1.47.22-2.21a20.21,20.21,0,0,1,2.55-8.26,28.86,28.86,0,0,0,2.5-5.8c1.43-5-.83-9.18-5.78-10.69a30.48,30.48,0,0,0-6.38-1.06,20.07,20.07,0,0,1-7.69-2C60.47,19,59.4,18.41,58.31,18a3.38,3.38,0,0,0-3.13.27,10,10,0,0,0-4.78,6.33,9.34,9.34,0,0,0,.41,5.28c.31.55.61,1.11.92,1.67,1.4,1.34,2.82,2.66,4.2,4a13.92,13.92,0,0,1,3.94,7.18c.4,1.93.77,3.87,1.16,5.8l.91,1.67c.34.37.66.74,1,1.09A9.38,9.38,0,0,0,73.4,53Z"/><path class="cls-2" d="M89.65,19.12a20.25,20.25,0,0,0,6.08-2.49c.76-.5,1.76-1.1,2.69-1.8a15.7,15.7,0,0,0,5.49-6.22,4,4,0,0,0-2.11-5.67,14.91,14.91,0,0,0-7.12-1.27C90.23,1.79,86.2,3,82.94,6.25c-2.66,2.61-3.26,5.85-1.63,9C83,18.5,85.86,19.83,89.65,19.12Z"/><path class="cls-2" d="M108.76,17a14.15,14.15,0,0,0-4.16,0,24.79,24.79,0,0,0-8,2.83c-.91.58-1.86,1.12-2.74,1.75a9.63,9.63,0,0,0-4.07,5.39,7.51,7.51,0,0,0,8.84,9c4.7-.9,8.11-3.67,10.72-7.55a14.26,14.26,0,0,0,2.78-7A3.79,3.79,0,0,0,108.76,17Z"/><path class="cls-2" d="M60.66,5.8A6.83,6.83,0,0,0,63.73,16a7,7,0,0,0,6.16-.54,21.17,21.17,0,0,0,5.54-4.59,16.57,16.57,0,0,0,4.06-6.73C80,2.31,79.74.94,78.84,0H67.71A14.35,14.35,0,0,0,60.66,5.8Z"/><path class="cls-2" d="M80.67,46.15a6.86,6.86,0,0,0,6.53,8.62c6.35.38,12.71-4.69,14.76-9.58a3.71,3.71,0,0,0-2.21-5A14.09,14.09,0,0,0,93,39.39a23.22,23.22,0,0,0-8.29,2.23A7.39,7.39,0,0,0,80.67,46.15Z"/><path class="cls-2" d="M80,123.41a10,10,0,0,0-6.43-2.66c-4.21-.12-6.11,3.24-3.7,6.63A15.51,15.51,0,0,0,72,129.45l1.38.74a3.45,3.45,0,0,1,.46.12,8,8,0,0,0,4.72.37C81.86,129.9,82.92,125.94,80,123.41Z"/><path class="cls-2" d="M104.57,109a3.52,3.52,0,0,0-4.27-.8,19.71,19.71,0,0,0-2.45,1.27A10.07,10.07,0,0,1,95,110.69a10.09,10.09,0,0,0-8.07,9.82,9.52,9.52,0,0,0,.66,3.64,11.58,11.58,0,0,1,.74,3.81,15,15,0,0,0,.27,2.16,3.82,3.82,0,0,0,4.5,3.31,4.43,4.43,0,0,0,2.2-1.07,10.63,10.63,0,0,0,3.3-5.44c.28-1,.47-2.07.71-3.11a6.72,6.72,0,0,1,1.6-3.08c.47-.5.94-1,1.41-1.47a13.61,13.61,0,0,0,2.37-3.16c.09-.18.2-.35.28-.53a6.8,6.8,0,0,0,.69-4.83A4.31,4.31,0,0,0,104.57,109Z"/><path class="cls-2" d="M72.69,97.22c-3.32.41-4.68,3.16-3,6.1a10,10,0,0,0,4.34,4,10.47,10.47,0,0,0,3.81,1.21c3.24.35,5.56-2.1,4.74-5C81.51,99.82,76.65,96.73,72.69,97.22Z"/><path class="cls-2" d="M73.3,118.45c3.88-.34,5.43-3.9,3-7A9.55,9.55,0,0,0,73,108.91a9.46,9.46,0,0,0-4.63-1.35c-2,0-3.69.5-4.54,2.15s-.28,3.35,1,5a9.56,9.56,0,0,0,3.14,2.53A9.36,9.36,0,0,0,73.3,118.45Z"/><path class="cls-2" d="M88.85,104.65c1.84.63,3.56.74,5-.4a3.82,3.82,0,0,0,1.25-4.54,8.78,8.78,0,0,0-8.36-5.41c-2.85.22-4.4,2.36-3.58,5,.66,2.11,2.23,3.6,4.47,4.82C87.9,104.24,88.36,104.48,88.85,104.65Z"/><path class="cls-2" d="M2.72,77.09a6.82,6.82,0,0,0,3.54-3.36,4.5,4.5,0,0,0,.24-2,3.53,3.53,0,0,0-2.85-3.28A21,21,0,0,0,.94,67.9L0,67.73V78a10.54,10.54,0,0,0,2.17-.7Z"/><path class="cls-2" d="M4.8,58.53A8.78,8.78,0,0,0,1.6,49.1,4.89,4.89,0,0,0,0,48.39V61.18a3.66,3.66,0,0,0,1,.13A3.82,3.82,0,0,0,4.8,58.53Z"/><path class="cls-2" d="M1.65,0H0V.91L.25.81A10.83,10.83,0,0,0,1.65,0Z"/></g></g></svg>