<svg xmlns="http://www.w3.org/2000/svg" viewBox="0 0 77.46 46.97"><defs><style>.cls-1{fill:#ffde17;}</style></defs><g id="Layer_2" data-name="Layer 2"><g id="Type"><path class="cls-1" d="M52.63,24.48l-.55-1.07c-2.58-4.94-.12-8,1.85-10.54,2.19-2.77,3.92-5,1.11-10.08l-.57-1L57.63,0l.58,1.06c4,7.21.83,11.16-1.45,14.05-1.92,2.42-3,3.76-1.48,6.63l.55,1.06Z"/><path class="cls-1" d="M43.32,24.48l-.55-1.07c-2.58-4.94-.13-8,1.85-10.54,2.19-2.77,3.92-5,1.11-10.08l-.58-1L48.32,0l.58,1.06c4,7.21.83,11.16-1.45,14.05-1.92,2.42-3,3.76-1.48,6.63l.55,1.06Z"/><path class="cls-1" d="M34,24.48l-.55-1.07c-2.58-4.94-.13-8,1.85-10.54,2.19-2.77,3.92-5,1.11-10.08l-.58-1L39,0l.58,1.05c4,7.22.83,11.17-1.45,14.06-1.92,2.42-3,3.76-1.48,6.63l.55,1.06Z"/><path class="cls-1" d="M15.5,29.28c-1.56.36-3.43,1.11-3.55,2.72a2.72,2.72,0,0,0,2.24,2.59,9.64,9.64,0,0,0,3.7-.17,28,28,0,0,1,8.33-.06c1.4.2,6.52.63,7.28,1.87a1.63,1.63,0,0,1-.69,2.09c-1.88,1.18-7.48-1-8.54,1.81a1.36,1.36,0,0,0,.63,1.53,3.85,3.85,0,0,0,1.71.45,143.55,143.55,0,0,0,47.77-3.37c1.08-.26,2.81-.65,3.05-1.93s-1-2.34-2-2.59a8.2,8.2,0,0,0-3.72.38c-3.66.86-7.36.51-11,1-1,.13-3.39.68-4.19,0-1.16-.91.15-2.68,1.32-3,1.61-.5,3.26.5,4.89.43a58.15,58.15,0,0,0,6.13-.93,4.28,4.28,0,0,0,1.66-.5,1.46,1.46,0,0,0,.71-1.48c-.21-.83-1.23-1.07-2.07-1.17-5-.56-10.67-.49-15.57-1.76-4.17-1.09-7.95-.6-12.25-.12s-9.23,1.68-13.62,1C23.41,27.52,19.67,28.31,15.5,29.28Z"/><path class="cls-1" d="M3.68,46.39a3.82,3.82,0,0,0,1.91.51,31.9,31.9,0,0,0,6.1-.19,32.46,32.46,0,0,0,3.38-.64c.95-.24,2.09-.79,2-1.77a1.51,1.51,0,0,0-.83-1.17,3.91,3.91,0,0,0-1.44-.35c-2.6-.28-5.49-1.44-8.1-1.25C5,41.66,1.28,44.71,3.68,46.39Z"/><ellipse class="cls-1" cx="71.03" cy="44.78" rx="5.32" ry="1.65"/><ellipse class="cls-1" cx="4.01" cy="34.67" rx="4.01" ry="0.83"/></g></g></svg>