<svg xmlns="http://www.w3.org/2000/svg" viewBox="0 0 146.74 38.17"><defs><style>.cls-1{fill:#fff;}.cls-2{fill:#a8dfff;}</style></defs><g id="Layer_2" data-name="Layer 2"><g id="Type"><path class="cls-1" d="M1.08,35.57A3.49,3.49,0,0,1,0,32.68q0-2,1.45-12.3A121.77,121.77,0,0,0,2.9,5.73C2.9,2.8,2.69.89,2.29,0Q6.7.35,8.08,3.46a15.06,15.06,0,0,1,7.33-1.82,8.2,8.2,0,0,1,6.31,2.49A8.62,8.62,0,0,1,24,10.24a11.81,11.81,0,0,1-3.28,8.13,12,12,0,0,1-4.13,2.81A14.12,14.12,0,0,1,11,22.26a17.6,17.6,0,0,1-2.46-.17l-.13-1.82h.34a9.43,9.43,0,0,0,7.78-3.63,8.79,8.79,0,0,0,2-5.45q0-4.18-3.41-5.53a8.65,8.65,0,0,0-6.49.43v.09q0,1.65-1.23,10.74A117.07,117.07,0,0,0,6.18,32.11a26.93,26.93,0,0,0,.26,4.24c-.92.06-1.53.09-1.82.09A5.68,5.68,0,0,1,1.08,35.57Z"/><path class="cls-1" d="M33.8,25.07a17.21,17.21,0,0,1-4.06-.48c0,.29,0,.74,0,1.34A9.08,9.08,0,0,0,31,31.34a3.91,3.91,0,0,0,3.2,1.81A6.31,6.31,0,0,0,37.78,32a10.21,10.21,0,0,0,2.93-3.11c1,.23,1.56.76,1.56,1.6-2.53,3.88-5.81,5.83-9.81,5.83a8.59,8.59,0,0,1-6.35-2.79c-1.82-1.86-2.73-4.44-2.73-7.76a17.86,17.86,0,0,1,1.43-7.06,13.63,13.63,0,0,1,4.54-5.67,11.28,11.28,0,0,1,6.89-2.31q3.78,0,5.56,1.73A6.06,6.06,0,0,1,43.57,17a6.9,6.9,0,0,1-2.83,6A11.74,11.74,0,0,1,33.8,25.07Zm1.82-11.63q-2.2,0-3.72,2.73a18,18,0,0,0-2,6.61h.65c2.5,0,4.36-.65,5.55-2a6.61,6.61,0,0,0,1.8-4.66,3.2,3.2,0,0,0-.59-1.93A2,2,0,0,0,35.62,13.44Z"/><path class="cls-1" d="M55.37,20.79q-.69,3.84-1.08,6.83a47,47,0,0,0-.39,6.09,11.88,11.88,0,0,0,.6,4.46,7.78,7.78,0,0,1-4.58-2.66,8.77,8.77,0,0,1-1.25-5.08,47,47,0,0,1,.91-7.93q.9-5,1.16-6.81A20.53,20.53,0,0,0,46,17.2c-.06-.63-.09-1.11-.09-1.42a3.38,3.38,0,0,1,1.38-3.14,8,8,0,0,1,4-.88c.2-2.16.3-3.72.3-4.67s0-1.74,0-2.38,0-1.11,0-1.43A6.47,6.47,0,0,1,55.63,5a5.71,5.71,0,0,1,1.29,4,27.64,27.64,0,0,1-.21,2.9q3.63-.09,5.31-1.43c.06.58.09,1,.09,1.3a4.27,4.27,0,0,1-.73,2.87,3.27,3.27,0,0,1-2.47.8c-1.15,0-2,0-2.63,0C56.13,16.42,55.83,18.23,55.37,20.79Z"/><path class="cls-2" d="M61.16,1.94a69,69,0,0,0,11.19.78A64.53,64.53,0,0,0,86,1.17q-.74,5.49-5.57,6c-1,.15-2.57.29-4.67.44-.06.83-.54,4.49-1.43,11A117.92,117.92,0,0,0,73,31.94a14.48,14.48,0,0,0,.61,5.1q-3.67-.95-5-2.53a5.84,5.84,0,0,1-1.34-3.91,94.85,94.85,0,0,1,1.11-10.13q1.1-7.81,1.31-12.56-3.49.16-6.87.17c-1.32,0-2-1.18-2-3.54A12.63,12.63,0,0,1,61.16,1.94Z"/><path class="cls-2" d="M92.21,13.38c1.46-1.78,2.81-2.66,4.07-2.66a3.21,3.21,0,0,1,2.83,1.4,6.4,6.4,0,0,1,1,3.63,6.91,6.91,0,0,1-1.32,4.09,4.19,4.19,0,0,1-3.61,1.86,3.76,3.76,0,0,1-1.42-.35A6.33,6.33,0,0,0,95,17.29c0-.92-.37-1.38-1.12-1.38a2.53,2.53,0,0,0-1.77,1.14,12.92,12.92,0,0,0-1.82,3.16,24.51,24.51,0,0,0-1.44,5.14A36.41,36.41,0,0,0,88.3,32c0,.29.07,1.51.22,3.67q-1.38.09-1.77.09a5.69,5.69,0,0,1-3.55-.87,3.42,3.42,0,0,1-1.08-2.85q0-.86.91-6.66a63.58,63.58,0,0,0,.91-9.22,25.83,25.83,0,0,0-.74-6.34,8.08,8.08,0,0,1,4.41,2.84A7.35,7.35,0,0,1,88.86,17a27.31,27.31,0,0,1-.39,4.69A23,23,0,0,1,92.21,13.38Z"/><path class="cls-2" d="M106.07,27.53a6.46,6.46,0,0,0,.75,3.31A2.37,2.37,0,0,0,109,32.11q2,0,3.87-2.37a18.35,18.35,0,0,0,2.94-6.1,25,25,0,0,0,1.1-7.06,44,44,0,0,0-.26-5.43c.87-.06,1.47-.09,1.82-.09a5.6,5.6,0,0,1,3.33.83,3.39,3.39,0,0,1,1.12,2.94c0,.54-.35,2.77-1,6.67a56.71,56.71,0,0,0-1,9.38,13.91,13.91,0,0,0,1.34,6.25,7.62,7.62,0,0,1-4.76-2.4,8.15,8.15,0,0,1-1.51-5.3c0-.4.06-1.18.17-2.33a13,13,0,0,1-4.15,6.61A9.21,9.21,0,0,1,106,36.22a5.67,5.67,0,0,1-4.62-2.14A9.34,9.34,0,0,1,99.67,28a21.43,21.43,0,0,1,1.4-7.63,16.29,16.29,0,0,1,4.22-6.27,9.07,9.07,0,0,1,6.27-2.57,9.76,9.76,0,0,1,4.06,1,13,13,0,0,0-7,6.12A18,18,0,0,0,106.07,27.53Z"/><path class="cls-2" d="M143.89,37a6.56,6.56,0,0,1-5.21-2.62,27.49,27.49,0,0,1-4.09-7.32,30,30,0,0,0-5.53,10.46c-2.16-1.79-3.24-3.37-3.24-4.76,0-1,.63-2.25,1.88-3.74a67.41,67.41,0,0,1,5.51-5.59,86.77,86.77,0,0,0-3.78-9.27,24.37,24.37,0,0,0-1.67-2.66,8.69,8.69,0,0,1,3.94-1.13A2.8,2.8,0,0,1,134,11.58a10.14,10.14,0,0,1,1.64,2.88c.38,1,.66,1.83.85,2.42s.46,1.46.84,2.61q6.18-6,6.83-9.51,2.55,2.17,2.55,3.76A4.15,4.15,0,0,1,146,16a11.33,11.33,0,0,1-1.64,2c-.58.54-1.52,1.34-2.83,2.42s-2.32,1.94-3,2.57a40.69,40.69,0,0,0,4.07,8.17,32,32,0,0,0,4.1,5.45A11.48,11.48,0,0,1,143.89,37Z"/></g></g></svg>