<svg xmlns="http://www.w3.org/2000/svg" viewBox="0 0 320.54 120.27"><defs><style>.cls-1{fill:#fff;}.cls-2{fill:#a8dfff;}.cls-3{fill:#e7ff67;}</style></defs><g id="Layer_2" data-name="Layer 2"><g id="Type"><path class="cls-1" d="M2.36,77.71Q0,75.82,0,71.38T3.16,44.52q3.16-22.43,3.17-32T5,0q9.63.75,12.66,7.55a32.88,32.88,0,0,1,16-4q8.73,0,13.78,5.43A18.87,18.87,0,0,1,52.5,22.38,26,26,0,0,1,36.3,46.26a30.68,30.68,0,0,1-12.22,2.36,37.1,37.1,0,0,1-5.39-.37l-.28-4h.76q10.67,0,17-7.93a19.25,19.25,0,0,0,4.34-11.9q0-9.15-7.45-12.08-6.33-2.35-14.17.94v.19q0,3.59-2.69,23.46A256.15,256.15,0,0,0,13.5,70.15a57.58,57.58,0,0,0,.57,9.25c-2,.13-3.34.19-4,.19Q4.72,79.59,2.36,77.71Z"/><path class="cls-1" d="M73.83,54.76a37.56,37.56,0,0,1-8.87-1c-.07.63-.1,1.61-.1,2.93q0,7.85,2.93,11.8t7,4A13.74,13.74,0,0,0,82.52,70a22.33,22.33,0,0,0,6.42-6.79q3.41.75,3.4,3.49Q84,79.41,70.91,79.4A18.76,18.76,0,0,1,57,73.31q-6-6.07-6-16.94a39.11,39.11,0,0,1,3.11-15.44,29.87,29.87,0,0,1,9.92-12.37,24.64,24.64,0,0,1,15.06-5q8.25,0,12.13,3.78a13.23,13.23,0,0,1,3.87,9.91q0,8.88-6.18,13.22T73.83,54.76Zm4-25.4q-4.81,0-8.12,6a39.44,39.44,0,0,0-4.35,14.45h1.42q8.22,0,12.13-4.25a14.48,14.48,0,0,0,3.92-10.2,7,7,0,0,0-1.27-4.2A4.35,4.35,0,0,0,77.8,29.36Z"/><path class="cls-1" d="M121,45.42q-1.52,8.4-2.36,14.91a102.32,102.32,0,0,0-.85,13.32q0,6.8,1.32,9.72-7.28-1.89-10-5.81t-2.74-11.09a104.06,104.06,0,0,1,2-17.33q2-11,2.55-14.87a45.55,45.55,0,0,0-10.48,3.31c-.12-1.39-.19-2.42-.19-3.12,0-3.33,1-5.62,3-6.84s4.91-1.87,8.68-1.94q.66-7.08.66-10.2c0-2.07,0-3.8,0-5.19s0-2.42,0-3.11q6.22.66,9.06,3.73t2.84,8.73a57.33,57.33,0,0,1-.48,6.32q7.94-.18,11.62-3.11c.12,1.26.19,2.2.19,2.83,0,3-.54,5.12-1.61,6.28s-2.86,1.75-5.38,1.75-4.44,0-5.76-.1Q122.45,37,121,45.42Z"/><path class="cls-2" d="M133.6,4.25A151.59,151.59,0,0,0,158.05,6a139.76,139.76,0,0,0,29.84-3.4q-1.6,12-12.18,13.12c-2.21.32-5.61.63-10.2,1q-.19,2.73-3.11,23.93t-2.93,29.22q0,8,1.32,11.15-8-2.08-10.95-5.53a12.72,12.72,0,0,1-2.93-8.54q0-5.1,2.41-22.14t2.88-27.43q-7.65.38-15,.38-4.35,0-4.35-7.75A26.83,26.83,0,0,1,133.6,4.25Z"/><path class="cls-2" d="M201.44,29.22q4.76-5.8,8.87-5.8a7,7,0,0,1,6.19,3.06,13.94,13.94,0,0,1,2.07,7.94,15.09,15.09,0,0,1-2.88,8.92,9.17,9.17,0,0,1-7.88,4.06,8.19,8.19,0,0,1-3.12-.76,13.81,13.81,0,0,0,2.93-8.87c0-2-.82-3-2.45-3q-1.8,0-3.88,2.5a28.63,28.63,0,0,0-4,6.89,53.87,53.87,0,0,0-3.16,11.24A79.52,79.52,0,0,0,192.89,70q0,.95.47,8c-2,.12-3.3.19-3.87.19q-5.38,0-7.74-1.89t-2.36-6.23q0-1.89,2-14.54a138,138,0,0,0,2-20.16,56.19,56.19,0,0,0-1.61-13.83q6.88,2.17,9.63,6.18a16.16,16.16,0,0,1,2.74,9.35,60.55,60.55,0,0,1-.85,10.24Q196.68,35,201.44,29.22Z"/><path class="cls-2" d="M231.7,60.14a14.07,14.07,0,0,0,1.65,7.23A5.17,5.17,0,0,0,238,70.15q4.44,0,8.45-5.19a40.17,40.17,0,0,0,6.42-13.31,54.21,54.21,0,0,0,2.41-15.44,98.79,98.79,0,0,0-.57-11.85c1.89-.13,3.21-.19,4-.19q4.82,0,7.27,1.79c1.64,1.2,2.45,3.34,2.45,6.43q0,1.78-2.26,14.58a123.89,123.89,0,0,0-2.27,20.49,30.5,30.5,0,0,0,2.93,13.64q-7.08-1.21-10.39-5.24t-3.3-11.56c0-.88.12-2.58.38-5.1a28.49,28.49,0,0,1-9.07,14.45q-6.51,5.47-12.79,5.47a12.41,12.41,0,0,1-10.1-4.67q-3.83-4.68-3.83-13.27a46.65,46.65,0,0,1,3.07-16.66A35.17,35.17,0,0,1,230,30.83a19.77,19.77,0,0,1,13.69-5.62,21.12,21.12,0,0,1,8.87,2.08q-9.54,3.39-15.2,13.36T231.7,60.14Z"/><path class="cls-2" d="M314.31,80.82q-6.6,0-11.38-5.71t-8.92-16A65.24,65.24,0,0,0,281.93,82q-7.08-5.85-7.08-10.38,0-3.3,4.1-8.17a149.62,149.62,0,0,1,12-12.23q-6-16.32-8.26-20.25a56.8,56.8,0,0,0-3.64-5.8,18.89,18.89,0,0,1,8.6-2.46,6.1,6.1,0,0,1,5.09,2.64,22.12,22.12,0,0,1,3.59,6.28q1.23,3.36,1.84,5.29c.41,1.29,1,3.2,1.84,5.71Q313.57,29.37,315,21.81q5.58,4.73,5.57,8.21a9,9,0,0,1-1.7,5,23.79,23.79,0,0,1-3.58,4.29c-1.26,1.17-3.33,2.93-6.19,5.29s-5.05,4.24-6.56,5.62a89.13,89.13,0,0,0,8.87,17.85q5.58,8.69,9,11.89A25,25,0,0,1,314.31,80.82Z"/><path class="cls-3" d="M12.39,114.09a6,6,0,0,1-2.42-.46,5,5,0,0,1-1.81-1.33,6.28,6.28,0,0,1-1.14-2,8.34,8.34,0,0,1-.4-2.68,14,14,0,0,1,.54-3.92,10.16,10.16,0,0,1,1.56-3.24,7.77,7.77,0,0,1,2.45-2.2,6.64,6.64,0,0,1,3.26-.8,5.56,5.56,0,0,1,3.48,1,5,5,0,0,1,1.8,2.68l-2,.89a3.26,3.26,0,0,0-3.37-2.5,4.13,4.13,0,0,0-3.1,1.21,6.49,6.49,0,0,0-1.63,3.35l-.52,2.61c0,.23-.07.47-.09.73s0,.48,0,.67a4.25,4.25,0,0,0,.89,2.82A3.35,3.35,0,0,0,12.64,112a3.76,3.76,0,0,0,2.15-.66,7,7,0,0,0,1.93-2.46l1.88.93A8,8,0,0,1,16,113,6.18,6.18,0,0,1,12.39,114.09Z"/><path class="cls-3" d="M33.46,113.72a2,2,0,0,1-1.56-.53,1.89,1.89,0,0,1-.51-1.39,3.8,3.8,0,0,1,.1-.83l.15-.71h-.09a8,8,0,0,1-2.2,2.92,4.74,4.74,0,0,1-3,.91,4.32,4.32,0,0,1-3.52-1.62A6.82,6.82,0,0,1,21.54,108a14.5,14.5,0,0,1,.48-3.63A12.61,12.61,0,0,1,23.45,101a8.23,8.23,0,0,1,2.43-2.55,6,6,0,0,1,3.44-1,5.35,5.35,0,0,1,1.39.18,4.24,4.24,0,0,1,1.24.56,3.85,3.85,0,0,1,1,.93,3.77,3.77,0,0,1,.58,1.3h.13l.52-2.6h2.38l-2.78,13.84H36l-.41,2.1ZM27,111.93a3.94,3.94,0,0,0,1.85-.42,5.76,5.76,0,0,0,1.51-1.16,6.78,6.78,0,0,0,1.29-1.73,8.23,8.23,0,0,0,.72-2.1l.65-3.24a3.74,3.74,0,0,0,0-1.41,2.45,2.45,0,0,0-.56-1.17,3,3,0,0,0-1.17-.82,4.74,4.74,0,0,0-1.79-.31,4.32,4.32,0,0,0-3.21,1.27,6.78,6.78,0,0,0-1.73,3.58l-.47,2.32a9.29,9.29,0,0,0-.15,1.57,4.18,4.18,0,0,0,.77,2.63A2.7,2.7,0,0,0,27,111.93Z"/><path class="cls-3" d="M39.08,113.72,42.3,97.78h2.38L44,101h.15a8.68,8.68,0,0,1,.74-1.16,5.42,5.42,0,0,1,1-1,4.86,4.86,0,0,1,1.31-.72,4.79,4.79,0,0,1,1.73-.28h1l-.47,2.44H48.35a5.63,5.63,0,0,0-2,.32,4.52,4.52,0,0,0-1.47.89,4.61,4.61,0,0,0-1,1.28,5.17,5.17,0,0,0-.54,1.53l-1.92,9.48Z"/><path class="cls-3" d="M56.6,114.09a5.77,5.77,0,0,1-4.45-1.7,7.06,7.06,0,0,1-1.57-5,12,12,0,0,1,.6-3.79,10.37,10.37,0,0,1,1.7-3.19,8.16,8.16,0,0,1,2.62-2.21,7.09,7.09,0,0,1,3.42-.82,7.21,7.21,0,0,1,1.94.26,5.1,5.1,0,0,1,1.64.79,3.88,3.88,0,0,1,1.13,1.34,4,4,0,0,1,.41,1.89,4.13,4.13,0,0,1-2.7,3.9c-1.8.85-4.57,1.29-8.29,1.33a5.35,5.35,0,0,0-.08.7c0,.24,0,.44,0,.6a3.84,3.84,0,0,0,1,2.74,3.69,3.69,0,0,0,2.82,1,5.49,5.49,0,0,0,2.74-.69,7.83,7.83,0,0,0,2.15-1.84l1.54,1.38A8.42,8.42,0,0,1,60,113.37,8.6,8.6,0,0,1,56.6,114.09Zm2.07-14.64a4.7,4.7,0,0,0-1.78.34,5,5,0,0,0-1.51.95,5.6,5.6,0,0,0-1.14,1.49,7.22,7.22,0,0,0-.7,1.94l-.18.9a38.37,38.37,0,0,0,4.17-.33,9.11,9.11,0,0,0,2.51-.65,2.55,2.55,0,0,0,1.24-1,2.88,2.88,0,0,0,.32-1.43,2.14,2.14,0,0,0-.24-1.07,2,2,0,0,0-.65-.67,2.91,2.91,0,0,0-.94-.35A5.07,5.07,0,0,0,58.67,99.45Z"/><path class="cls-3" d="M69.05,113.72a2.2,2.2,0,0,1-1.62-.54,1.91,1.91,0,0,1-.54-1.41A4.15,4.15,0,0,1,67,111l2.25-11.15H66.89l.4-2.1h1.2a1.49,1.49,0,0,0,1.16-.34,2.49,2.49,0,0,0,.45-1.17l.59-2.91h2.19L72,97.78h3.37l-.4,2.1H71.61l-2.38,11.74h3.12l-.4,2.1Z"/><path class="cls-3" d="M88.08,113.72a2,2,0,0,1-1.56-.53A1.89,1.89,0,0,1,86,111.8a4.45,4.45,0,0,1,.09-.83l.16-.71h-.1A8.09,8.09,0,0,1,84,113.18a4.75,4.75,0,0,1-3,.91,4.33,4.33,0,0,1-3.52-1.62A6.87,6.87,0,0,1,76.15,108a14.5,14.5,0,0,1,.48-3.63A12.33,12.33,0,0,1,78.07,101,8.23,8.23,0,0,1,80.5,98.4a6,6,0,0,1,3.44-1,5.41,5.41,0,0,1,1.39.18,4.49,4.49,0,0,1,1.24.56,3.81,3.81,0,0,1,1,.93,3.6,3.6,0,0,1,.59,1.3h.12l.53-2.6h2.38l-2.78,13.84h2.25l-.4,2.1Zm-6.46-1.79a4,4,0,0,0,1.86-.42A5.76,5.76,0,0,0,85,110.35a6.74,6.74,0,0,0,1.28-1.73,8.23,8.23,0,0,0,.73-2.1l.65-3.24a3.74,3.74,0,0,0,0-1.41,2.55,2.55,0,0,0-.56-1.17A3.11,3.11,0,0,0,86,99.88a4.78,4.78,0,0,0-1.79-.31,4.36,4.36,0,0,0-3.22,1.27,6.85,6.85,0,0,0-1.73,3.58l-.46,2.32a9.38,9.38,0,0,0-.16,1.57,4.12,4.12,0,0,0,.78,2.63A2.67,2.67,0,0,0,81.62,111.93Z"/><path class="cls-3" d="M98.3,90.86h2.38l-2.9,14.37h.15l2.85-2.72,5.37-4.73H109l-7.1,6.43,3.24,7.41h2l-.4,2.1h-1.36a2.46,2.46,0,0,1-2.63-1.67L100,105.6l-2.81,2.53-1.11,5.59H93.7Z"/><path class="cls-3" d="M112.36,113.72a2.2,2.2,0,0,1-1.62-.54,1.91,1.91,0,0,1-.54-1.41,4.15,4.15,0,0,1,.09-.74L113,97.78h2.37l-2.78,13.84h2.26l-.4,2.1ZM115,94a1.33,1.33,0,0,1-1-.32,1.13,1.13,0,0,1-.29-.76c0-.06,0-.15,0-.26s0-.32.11-.6a1.58,1.58,0,0,1,.51-.92,1.8,1.8,0,0,1,1.16-.32,1.32,1.32,0,0,1,1,.32,1.09,1.09,0,0,1,.3.76c0,.06,0,.15,0,.26s-.05.32-.11.61a1.55,1.55,0,0,1-.51.91A1.78,1.78,0,0,1,115,94Z"/><path class="cls-3" d="M117.89,113.72l3.21-15.94h2.38l-.65,3.15H123a6.85,6.85,0,0,1,2-2.66,4.72,4.72,0,0,1,2.89-.86A3.88,3.88,0,0,1,131,98.58a4.81,4.81,0,0,1,1,3.25c0,.29,0,.6,0,1a9.85,9.85,0,0,1-.17,1.12l-1.55,7.72h2.26l-.4,2.1h-2.26a2.2,2.2,0,0,1-1.43-.43,1.64,1.64,0,0,1-.54-1.36v-.28a1.71,1.71,0,0,1,.06-.37l1.48-7.38a7.59,7.59,0,0,0,.12-.91c0-.3,0-.55,0-.73a3,3,0,0,0-.57-2,2.32,2.32,0,0,0-1.87-.67,4,4,0,0,0-2.93,1.27,7.09,7.09,0,0,0-1.36,1.91,8.26,8.26,0,0,0-.74,2.07l-1.79,8.9Z"/><path class="cls-3" d="M148.5,114.86a5.25,5.25,0,0,1-.4,2,4.34,4.34,0,0,1-1.36,1.73,7.38,7.38,0,0,1-2.55,1.2,15,15,0,0,1-4,.45q-6.42,0-6.42-3.52a3.2,3.2,0,0,1,.78-2.15,4.79,4.79,0,0,1,2.37-1.37L137,113a2,2,0,0,1-1.3-2,2.54,2.54,0,0,1,.79-1.91,4.67,4.67,0,0,1,2.42-1.11l0-.22a4.15,4.15,0,0,1-2.16-4,6.45,6.45,0,0,1,.5-2.53,5.84,5.84,0,0,1,1.39-2,6.36,6.36,0,0,1,2.13-1.33,7.44,7.44,0,0,1,2.72-.48,6,6,0,0,1,3,.68l.06-.37a2.86,2.86,0,0,1,.68-1.51,2,2,0,0,1,1.52-.56H151l-.4,2.1h-2.75L147.58,99a4.77,4.77,0,0,1,1,3,6,6,0,0,1-1.93,4.5,6.54,6.54,0,0,1-2.17,1.33,7.86,7.86,0,0,1-2.79.48l-.6,0a5.57,5.57,0,0,1-.6-.08,5.85,5.85,0,0,0-1.82.64,1.31,1.31,0,0,0-.71,1.22q0,1.14,2.1,1.14h3.55a6,6,0,0,1,3.78.93A3.23,3.23,0,0,1,148.5,114.86Zm-2.47.5a1.71,1.71,0,0,0-.54-1.33,3,3,0,0,0-2-.5H138a2.65,2.65,0,0,0-1.86,2.51,2.46,2.46,0,0,0,.17.91,1.77,1.77,0,0,0,.56.72,2.69,2.69,0,0,0,1,.48,5.94,5.94,0,0,0,1.59.17h1.45a7.12,7.12,0,0,0,3.9-.82A2.48,2.48,0,0,0,146,115.36Zm-4-8.87a3.44,3.44,0,0,0,3.8-3c.11-.56.18-.94.22-1.15a3,3,0,0,0,.06-.58,2.28,2.28,0,0,0-.71-1.78,3.12,3.12,0,0,0-2.19-.67,3.81,3.81,0,0,0-2.61.82,3.89,3.89,0,0,0-1.19,2.21c-.1.56-.18.94-.22,1.15a3,3,0,0,0-.06.58,2.28,2.28,0,0,0,.71,1.76A3.15,3.15,0,0,0,142,106.49Z"/><path class="cls-3" d="M158.33,113.72l3.21-15.94h2.38l-.65,3.15h.15a7.11,7.11,0,0,1,2-2.66,4.68,4.68,0,0,1,2.89-.86,3.52,3.52,0,0,1,2.6.93,4.14,4.14,0,0,1,1.11,2.59h.18a6.52,6.52,0,0,1,2-2.66,5,5,0,0,1,3-.86,3.8,3.8,0,0,1,3,1.14,4.77,4.77,0,0,1,1,3.25,10.85,10.85,0,0,1-.21,2.07l-1.55,7.75h2.26l-.4,2.1H179a2.33,2.33,0,0,1-1.48-.43A1.58,1.58,0,0,1,177,112a3.37,3.37,0,0,1,.1-.71l1.48-7.38a9,9,0,0,0,.18-1.7,2.87,2.87,0,0,0-.57-2,2.38,2.38,0,0,0-1.87-.65,3.68,3.68,0,0,0-2.68,1.27,6.27,6.27,0,0,0-1.29,1.88,8.86,8.86,0,0,0-.69,2.1l-1.79,8.9h-2.38l2-9.82a9.47,9.47,0,0,0,.18-1.8c0-1.68-.74-2.53-2.22-2.53a3.59,3.59,0,0,0-1.52.34,4.25,4.25,0,0,0-1.23.9,7.34,7.34,0,0,0-1.42,2,8.37,8.37,0,0,0-.74,2l-1.8,8.9Z"/><path class="cls-3" d="M196.91,113.72a2,2,0,0,1-1.56-.53,1.89,1.89,0,0,1-.51-1.39,4.45,4.45,0,0,1,.09-.83l.16-.71H195a8.09,8.09,0,0,1-2.19,2.92,4.75,4.75,0,0,1-3,.91,4.33,4.33,0,0,1-3.52-1.62A6.87,6.87,0,0,1,185,108a14.5,14.5,0,0,1,.48-3.63A12.33,12.33,0,0,1,186.9,101a8.23,8.23,0,0,1,2.43-2.55,6,6,0,0,1,3.44-1,5.41,5.41,0,0,1,1.39.18,4.49,4.49,0,0,1,1.24.56,3.81,3.81,0,0,1,.95.93,3.6,3.6,0,0,1,.59,1.3h.12l.53-2.6H200l-2.78,13.84h2.25l-.4,2.1Zm-6.46-1.79a4,4,0,0,0,1.86-.42,5.76,5.76,0,0,0,1.51-1.16,6.74,6.74,0,0,0,1.28-1.73,8.23,8.23,0,0,0,.73-2.1l.65-3.24a3.74,3.74,0,0,0,0-1.41,2.55,2.55,0,0,0-.56-1.17,3.11,3.11,0,0,0-1.17-.82,4.78,4.78,0,0,0-1.79-.31,4.36,4.36,0,0,0-3.22,1.27,6.85,6.85,0,0,0-1.73,3.58l-.46,2.32a9.38,9.38,0,0,0-.16,1.57,4.12,4.12,0,0,0,.78,2.63A2.67,2.67,0,0,0,190.45,111.93Z"/><path class="cls-3" d="M214.92,113.72a2,2,0,0,1-1.56-.53,1.89,1.89,0,0,1-.51-1.39,4.45,4.45,0,0,1,.09-.83l.16-.71H213a8.09,8.09,0,0,1-2.19,2.92,4.75,4.75,0,0,1-3,.91,4.33,4.33,0,0,1-3.52-1.62A6.87,6.87,0,0,1,203,108a14.5,14.5,0,0,1,.48-3.63,12.33,12.33,0,0,1,1.44-3.43,8.32,8.32,0,0,1,2.42-2.55,6,6,0,0,1,3.45-1,5.41,5.41,0,0,1,1.39.18,4.49,4.49,0,0,1,1.24.56,3.81,3.81,0,0,1,1,.93,3.6,3.6,0,0,1,.59,1.3h.12L217,90.86h2.38l-4.17,20.76h2.25l-.4,2.1Zm-6.43-1.79a3.85,3.85,0,0,0,1.84-.43,6.39,6.39,0,0,0,1.5-1.15,7.19,7.19,0,0,0,1.27-1.7,8.2,8.2,0,0,0,.74-2.13l.65-3.24a3.74,3.74,0,0,0,0-1.41,2.55,2.55,0,0,0-.56-1.17,3.11,3.11,0,0,0-1.17-.82,4.78,4.78,0,0,0-1.79-.31,4.36,4.36,0,0,0-3.22,1.27,6.85,6.85,0,0,0-1.73,3.58l-.46,2.32a9.38,9.38,0,0,0-.16,1.57,4.41,4.41,0,0,0,.73,2.6A2.66,2.66,0,0,0,208.49,111.93Z"/><path class="cls-3" d="M227,114.09a5.77,5.77,0,0,1-4.45-1.7,7.06,7.06,0,0,1-1.58-5,12,12,0,0,1,.6-3.79,10.59,10.59,0,0,1,1.7-3.19,8.2,8.2,0,0,1,2.63-2.21,7.07,7.07,0,0,1,3.41-.82,7.34,7.34,0,0,1,1.95.26,5.2,5.2,0,0,1,1.64.79A3.74,3.74,0,0,1,234,99.8a4,4,0,0,1,.42,1.89,4.13,4.13,0,0,1-2.7,3.9q-2.7,1.27-8.3,1.33a5.35,5.35,0,0,0-.07.7c0,.24,0,.44,0,.6a3.89,3.89,0,0,0,1,2.74,3.7,3.7,0,0,0,2.83,1,5.43,5.43,0,0,0,2.73-.69,7.68,7.68,0,0,0,2.15-1.84l1.55,1.38a8.5,8.5,0,0,1-3.17,2.53A8.6,8.6,0,0,1,227,114.09ZM229,99.45a4.7,4.7,0,0,0-1.78.34,4.83,4.83,0,0,0-1.51.95,5.43,5.43,0,0,0-1.15,1.49,6.88,6.88,0,0,0-.69,1.94l-.19.9a38.37,38.37,0,0,0,4.17-.33,9.29,9.29,0,0,0,2.52-.65,2.55,2.55,0,0,0,1.24-1,3,3,0,0,0,.32-1.43,2,2,0,0,0-.25-1.07,2,2,0,0,0-.64-.67,3,3,0,0,0-1-.35A5,5,0,0,0,229,99.45Z"/><path class="cls-3" d="M250,114.09a5.79,5.79,0,0,1-4.45-1.7,7.06,7.06,0,0,1-1.57-5,12,12,0,0,1,.6-3.79,10.37,10.37,0,0,1,1.7-3.19A8.2,8.2,0,0,1,249,98.23a7,7,0,0,1,3.41-.82,7.21,7.21,0,0,1,1.94.26,5.1,5.1,0,0,1,1.64.79,3.77,3.77,0,0,1,1.13,1.34,4,4,0,0,1,.42,1.89,4.14,4.14,0,0,1-2.71,3.9q-2.7,1.27-8.29,1.33a5.35,5.35,0,0,0-.08.7c0,.24,0,.44,0,.6a3.84,3.84,0,0,0,1,2.74,3.7,3.7,0,0,0,2.83,1,5.43,5.43,0,0,0,2.73-.69,7.83,7.83,0,0,0,2.15-1.84l1.54,1.38a8.48,8.48,0,0,1-3.16,2.53A8.68,8.68,0,0,1,250,114.09Zm2.07-14.64a4.7,4.7,0,0,0-1.78.34,5,5,0,0,0-1.51.95,5.6,5.6,0,0,0-1.14,1.49,7.22,7.22,0,0,0-.7,1.94l-.18.9a38.37,38.37,0,0,0,4.17-.33,9.29,9.29,0,0,0,2.52-.65,2.57,2.57,0,0,0,1.23-1,2.88,2.88,0,0,0,.33-1.43,2.14,2.14,0,0,0-.25-1.07,2,2,0,0,0-.65-.67,2.91,2.91,0,0,0-.94-.35A5.07,5.07,0,0,0,252.11,99.45Z"/><path class="cls-3" d="M271.79,113.72a2,2,0,0,1-1.56-.53,1.89,1.89,0,0,1-.51-1.39,4.45,4.45,0,0,1,.09-.83l.16-.71h-.1a8.09,8.09,0,0,1-2.19,2.92,4.75,4.75,0,0,1-3,.91,4.33,4.33,0,0,1-3.52-1.62,6.87,6.87,0,0,1-1.33-4.46,14.5,14.5,0,0,1,.48-3.63,12.33,12.33,0,0,1,1.44-3.43,8.23,8.23,0,0,1,2.43-2.55,6,6,0,0,1,3.44-1,5.41,5.41,0,0,1,1.39.18,4.49,4.49,0,0,1,1.24.56,3.81,3.81,0,0,1,1,.93,3.6,3.6,0,0,1,.59,1.3h.12l.53-2.6h2.38l-2.78,13.84h2.25l-.4,2.1Zm-6.46-1.79a4,4,0,0,0,1.86-.42,5.76,5.76,0,0,0,1.51-1.16,6.74,6.74,0,0,0,1.28-1.73,8.23,8.23,0,0,0,.73-2.1l.65-3.24a3.74,3.74,0,0,0,0-1.41,2.55,2.55,0,0,0-.56-1.17,3.11,3.11,0,0,0-1.17-.82,4.78,4.78,0,0,0-1.79-.31,4.36,4.36,0,0,0-3.22,1.27,6.85,6.85,0,0,0-1.73,3.58l-.46,2.32a9.38,9.38,0,0,0-.16,1.57,4.12,4.12,0,0,0,.78,2.63A2.67,2.67,0,0,0,265.33,111.93Z"/><path class="cls-3" d="M282.75,114.09a8,8,0,0,1-3.46-.76,6.26,6.26,0,0,1-2.56-2.15l1.64-1.46a5.85,5.85,0,0,0,1.91,1.69,5.12,5.12,0,0,0,2.47.58,4.26,4.26,0,0,0,2.6-.75,2.58,2.58,0,0,0,1-2.22,2,2,0,0,0-.48-1.36,3.29,3.29,0,0,0-1.87-.85l-1.2-.24a10.72,10.72,0,0,1-1.69-.48,4.86,4.86,0,0,1-1.36-.77,3.35,3.35,0,0,1-.89-1.18,3.92,3.92,0,0,1-.33-1.69,5.13,5.13,0,0,1,.36-1.9,4.37,4.37,0,0,1,1.1-1.61,5.53,5.53,0,0,1,1.85-1.11,7.33,7.33,0,0,1,2.59-.42,7,7,0,0,1,3,.6,5.92,5.92,0,0,1,2.16,1.76L288,101.22a4.25,4.25,0,0,0-1.42-1.22,4.78,4.78,0,0,0-2.32-.49,3.73,3.73,0,0,0-2.58.76,2.57,2.57,0,0,0-.82,2,2,2,0,0,0,.48,1.37,3.47,3.47,0,0,0,1.84.81l1.2.24a10.31,10.31,0,0,1,1.75.5,4.54,4.54,0,0,1,1.34.8,3.54,3.54,0,0,1,.87,1.21,4.37,4.37,0,0,1,.31,1.7,5.12,5.12,0,0,1-.45,2.18,4.6,4.6,0,0,1-1.24,1.64,5.66,5.66,0,0,1-1.87,1A7.11,7.11,0,0,1,282.75,114.09Z"/><path class="cls-3" d="M303.82,97.78h2.54l-10.78,19.55a6.92,6.92,0,0,1-1.5,2,3,3,0,0,1-1.93.59h-2.48l.41-2H293l2-3.65-2.54-16.43h2.32l1.17,7.88.65,5.81h.16l2.87-5.81Z"/></g></g></svg>