<svg xmlns="http://www.w3.org/2000/svg" viewBox="0 0 69.11 68.33"><defs><style>.cls-1{fill:#db7e60;}.cls-2{fill:#754c29;}.cls-3{fill:#c0694e;}</style></defs><g id="Layer_2" data-name="Layer 2"><g id="Type"><rect class="cls-1" x="2.64" y="52.82" width="63.83" height="12.87" rx="6.43"/><path class="cls-2" d="M60,68.33h-51a9.08,9.08,0,0,1,0-18.15H60a9.08,9.08,0,0,1,0,18.15Zm-51-12.87a3.8,3.8,0,0,0,0,7.59H60a3.8,3.8,0,0,0,0-7.59Z"/><rect class="cls-3" x="8.59" y="39.96" width="50.26" height="12.87" rx="6.43"/><path class="cls-2" d="M52.41,55.46H15a9.07,9.07,0,0,1,0-18.14H52.41a9.07,9.07,0,0,1,0,18.14ZM15,42.6a3.79,3.79,0,1,0,0,7.58H52.41a3.79,3.79,0,1,0,0-7.58Z"/><path class="cls-1" d="M46.25,13.23c-.88,11.66-3.52,13.37-16,13.86h-5a7.58,7.58,0,0,0-7.58,7.59h0A5.28,5.28,0,0,0,22.94,40H46.25c3.3,0,5.28-5.28,5.28-5.28C55.71,20.49,46.25,13.23,46.25,13.23Z"/><path class="cls-2" d="M46.25,42.6H22.94A7.93,7.93,0,0,1,15,34.68,10.24,10.24,0,0,1,25.24,24.45h5C41.73,24,42.86,23,43.62,13a2.64,2.64,0,0,1,4.24-1.9c.44.34,10.84,8.53,6.2,24.28L54,35.6C53.73,36.32,51.23,42.6,46.25,42.6ZM48,19.6c-1.94,8-6.76,9.7-17.63,10.13H25.24a5,5,0,0,0-4.94,4.95,2.64,2.64,0,0,0,2.64,2.64H46.25c.79,0,2.14-1.89,2.78-3.49C50.89,27.42,49.64,22.68,48,19.6Z"/><path class="cls-2" d="M31.85,14.84C29.23,12.39,30.06,10,30.73,8c.72-2.11,1.3-3.78-1.45-6.25L30.89,0C34.83,3.53,33.77,6.59,33,8.83c-.66,1.94-.92,2.93.5,4.26Z"/><path class="cls-2" d="M26.24,16.81C23.62,14.36,24.45,12,25.12,10c.72-2.11,1.3-3.78-1.45-6.25L25.28,2c3.93,3.54,2.88,6.6,2.11,8.83-.67,1.94-.92,2.93.5,4.26Z"/><path class="cls-2" d="M20.63,18.79C18,16.33,18.84,13.92,19.5,12c.73-2.12,1.31-3.79-1.44-6.26l1.61-1.79c3.93,3.54,2.88,6.6,2.11,8.83-.67,1.94-.92,2.93.5,4.26Z"/></g></g></svg>